PathFileType	4	(X/Y/Z)	C:/Users/opensim2020/Desktop/walking_exp_matlab/subject03_walking15_straight_01.trc																																																																																																																																											
DataRate	CameraRate	NumFrames	NumMarkers	Units	OrigDataRate	OrigDataStartFrame	OrigNumFrames																																																																																																																																							
100	100	8	47	mm	100	501	196																																																																																																																																							
Frame#	Time	LFHD			RFHD			LBHD			RBHD			C7			T10			CLAV			STRN			RBAK			LSHO			LUPA			LELB			LFRM			LWRA			LWRB			LFIN			RSHO			RUPA			RELB			RFRM			RWRA			RWRB			RFIN			LASI			RASI			LPSI			RPSI			LTHI			LKNE			LTIB			LANK			LHEE			LTOE			RTHI			RKNE			RTIB			RANK			RHEE			RTOE			*39			*40			*41			*42			*43			*44			*45			*46		
		X1	Y1	Z1	X2	Y2	Z2	X3	Y3	Z3	X4	Y4	Z4	X5	Y5	Z5	X6	Y6	Z6	X7	Y7	Z7	X8	Y8	Z8	X9	Y9	Z9	X10	Y10	Z10	X11	Y11	Z11	X12	Y12	Z12	X13	Y13	Z13	X14	Y14	Z14	X15	Y15	Z15	X16	Y16	Z16	X17	Y17	Z17	X18	Y18	Z18	X19	Y19	Z19	X20	Y20	Z20	X21	Y21	Z21	X22	Y22	Z22	X23	Y23	Z23	X24	Y24	Z24	X25	Y25	Z25	X26	Y26	Z26	X27	Y27	Z27	X28	Y28	Z28	X29	Y29	Z29	X30	Y30	Z30	X31	Y31	Z31	X32	Y32	Z32	X33	Y33	Z33	X34	Y34	Z34	X35	Y35	Z35	X36	Y36	Z36	X37	Y37	Z37	X38	Y38	Z38	X39	Y39	Z39	X40	Y40	Z40	X41	Y41	Z41	X42	Y42	Z42	X43	Y43	Z43	X44	Y44	Z44	X45	Y45	Z45	X46	Y46	Z46	X47	Y47	Z47
																																																																																																																																														
1	0	-961.08258	1618.44397	1344.49866	-974.11835	1620.83838	1476.21667	-1080.7262	1556.63245	1336.71265	-1089.57251	1558.98206	1466.96899	-1103.69873	1410.96423	1385.50403	-1165.83252	1107.92737	1379.52344	-981.71808	1332.62463	1402.64172	-952.3399	1162.50586	1397.21045	-1175.21997	1244.67981	1475.39197	-1003.93213	1373.3075	1242.97583	-1006.5152	1178.42603	1164.47168	-1000.2804	1055.75757	1150.78259	-983.42566	925.41235	1148.71191	-985.20465	803.73804	1173.04895	-989.80957	815.82739	1117.61389	-990.03625	729.00958	1123.67188	-1047.63354	1357.95874	1555.57837	-1078.48242	1140.12195	1631.35559	-1076.94006	1027.23486	1648.16284	-1080.5531	890.00916	1655.54346	-1067.1239	788.69427	1622.78723	-1095.29065	791.53632	1669.66187	-1086.39478	715.56158	1659.81482	-1016.75629	924.12506	1281.17773	-1036.85718	933.67004	1511.94336	-1178.11584	964.88745	1315.4408	-1190.00195	973.7298	1463.15271	-1098.77441	625.23132	1243.54333	-1121.20911	452.19107	1288.03857	-1207.32312	271.38086	1275.78772	-1279.19751	72.42755	1309.53503	-1331.15942	41.14661	1339.2146	-1137.505	35.42487	1347.33887	-1027.52502	652.98779	1577.80579	-940.58142	494.12466	1564.75696	-1020.67603	318.85114	1561.24133	-1100.33411	119.3459	1512.39893	-1143.75085	95.4296	1453.63013	-978.96149	52.02733	1519.61865	NaN	NaN	NaN	NaN	NaN	NaN	NaN	NaN	NaN	NaN	NaN	NaN	NaN	NaN	NaN	NaN	NaN	NaN	NaN	NaN	NaN	NaN	NaN	NaN
2	0.01	-952.40173	1617.65405	1345.94458	-965.29236	1620.01172	1477.76282	-1071.99438	1555.79456	1338.22852	-1080.68396	1558.11035	1468.51941	-1094.94629	1410.11011	1386.94165	-1156.78772	1106.88	1379.9906	-972.89612	1331.79199	1404.04138	-943.58826	1161.64954	1398.34338	-1166.56592	1243.41821	1476.17468	-995.21216	1372.70154	1244.3739	-995.86127	1178.01135	1166.51318	-987.72821	1055.18042	1153.38074	-967.4906	925.5293	1153.01672	-966.02197	804.15979	1179.0553	-971.09698	815.08362	1123.51831	-965.65179	729.49939	1130.56067	-1039.42456	1356.62683	1556.94482	-1071.13806	1138.74634	1632.35425	-1070.64722	1025.86243	1649.37415	-1075.68469	888.78479	1657.08301	-1065.52039	787.23431	1623.92603	-1091.53687	790.35297	1671.07214	-1082.547	714.64569	1661.32104	-1007.41376	922.92102	1281.79443	-1027.44409	933.02405	1513.01233	-1169.08826	963.73444	1316.44702	-1180.78088	972.86182	1464.15417	-1093.86768	624.48969	1244.28821	-1119.40393	451.77652	1288.63525	-1206.43945	271.80969	1276.03589	-1279.15161	73.23134	1309.55444	-1331.03149	42.1501	1339.23938	-1137.28308	35.25439	1347.26355	-1014.8941	654.14819	1579.172	-926.53265	495.96182	1564.64905	-996.26532	315.89566	1563.47949	-1063.70972	111.30059	1516.42615	-1106.74316	85.07346	1458.50806	-938.16614	50.65987	1520.68787	NaN	NaN	NaN	NaN	NaN	NaN	NaN	NaN	NaN	NaN	NaN	NaN	NaN	NaN	NaN	NaN	NaN	NaN	NaN	NaN	NaN	NaN	NaN	NaN
3	0.02	-943.57977	1616.78088	1347.42761	-956.30243	1619.08459	1479.23926	-1063.18286	1554.86194	1339.82581	-1071.76697	1557.13342	1470.1051	-1086.0824	1409.16821	1388.4303	-1147.76978	1105.76001	1380.60718	-964.05267	1330.81628	1405.53247	-934.75897	1160.5824	1399.52319	-1157.86218	1241.91467	1476.88379	-986.362	1372.02979	1245.86243	-985.04736	1177.0636	1168.44751	-975.57532	1054.55359	1155.77759	-951.51953	925.60413	1157.12878	-946.54431	804.85962	1185.12659	-952.18652	814.59106	1129.60413	-941.5899	730.31183	1137.81372	-1030.94971	1355.0791	1558.38293	-1063.68054	1137.24695	1633.33105	-1064.05005	1024.36365	1650.62659	-1070.56299	887.36554	1658.59717	-1058.052	785.88055	1626.80005	-1087.83313	789.22119	1672.59802	-1078.48828	713.55164	1663.26318	-998.59729	921.43298	1282.55322	-1017.64581	932.29523	1513.80847	-1160.16187	962.43134	1317.52722	-1171.49377	971.84717	1465.24976	-1088.71387	623.95575	1245.09949	-1117.4928	451.62567	1289.16577	-1205.61523	272.44214	1276.29565	-1279.03479	73.94639	1309.81287	-1330.96631	43.26449	1339.19763	-1137.54565	35.26814	1347.46313	-1002.81635	654.59601	1580.35315	-913.17609	497.20831	1564.31506	-972.04034	313.00488	1565.98706	-1026.97339	104.0798	1520.68921	-1069.51013	75.64646	1463.73999	-897.68713	49.76216	1521.43298	NaN	NaN	NaN	NaN	NaN	NaN	NaN	NaN	NaN	NaN	NaN	NaN	NaN	NaN	NaN	NaN	NaN	NaN	NaN	NaN	NaN	NaN	NaN	NaN
4	0.03	-934.66211	1615.78943	1349.08191	-947.40814	1618.11926	1480.93103	-1054.22095	1553.7699	1341.49316	-1062.73633	1556.01282	1471.81482	-1077.01636	1408.17419	1390.06409	-1138.77588	1104.63281	1381.24036	-955.06152	1329.69397	1407.05615	-926.00067	1159.3916	1400.77576	-1149.04065	1240.29248	1477.71631	-977.3266	1371.2511	1247.40808	-974.19965	1176.36157	1170.63	-962.70166	1053.94226	1158.49377	-935.78662	925.73572	1161.29297	-926.60608	806.01123	1191.37292	-933.21979	814.32947	1135.84692	-917.73853	731.56458	1145.35999	-1022.08209	1353.38879	1559.98279	-1055.90564	1135.57043	1634.3252	-1057.2301	1022.77722	1651.90649	-1065.06689	885.84314	1660.11792	-1052.95935	784.14459	1628.76147	-1083.58765	787.93439	1674.32263	-1073.56531	712.48157	1665.51147	-989.59467	919.97882	1283.27649	-1007.64264	931.50494	1514.61877	-1151.30688	960.90155	1318.76672	-1162.0929	970.71527	1466.5675	-1083.23071	623.29352	1245.95667	-1115.68713	451.70486	1289.46399	-1204.72412	273.20721	1276.70667	-1278.92151	74.78669	1310.05884	-1330.87805	44.93406	1339.22937	-1137.56653	35.24406	1347.47083	-991.04639	654.76398	1581.58838	-900.49377	498.00024	1563.98669	-948.664	310.53735	1568.35986	-990.48291	97.72637	1525.21704	-1032.44861	67.34655	1469.26831	-857.83539	49.37715	1521.96741	-1029.97388	1663.24768	1393.19458	NaN	NaN	NaN	NaN	NaN	NaN	NaN	NaN	NaN	NaN	NaN	NaN	NaN	NaN	NaN	NaN	NaN	NaN	NaN	NaN	NaN
5	0.04	-925.6344	1614.72412	1350.67285	-938.25305	1616.9679	1482.49438	-1045.16711	1552.57715	1343.23547	-1053.5376	1554.75659	1473.57153	-1067.75305	1407.02051	1391.66113	-1129.72632	1103.43079	1382.00024	-945.8504	1328.51147	1408.60352	-917.10046	1158.10217	1402.00696	-1140.06018	1238.56213	1478.52722	-968.16437	1370.42358	1249.06836	-963.15887	1175.80676	1173.04553	-951.07141	1053.44348	1160.54529	-920.11328	926.1062	1165.43347	-906.49713	807.63177	1197.71362	-913.91803	814.44452	1142.15845	-894.05182	733.34222	1153.02856	-1013.46002	1351.66028	1561.57288	-1047.94177	1133.83423	1635.44397	-1050.10718	1021.10345	1653.18591	-1059.07898	884.23883	1661.60779	-1047.60559	782.60754	1630.87415	-1078.65881	786.56793	1675.83679	-1068.03943	711.48254	1668.40576	-980.758	918.64948	1283.9458	-997.30701	930.73633	1515.43079	-1142.34436	959.12531	1320.13232	-1152.46472	969.25299	1468.01074	-1077.82849	623.1958	1246.84375	-1113.45874	451.84814	1289.77441	-1203.65491	274.15381	1277.19006	-1278.87549	76.31268	1310.54468	-1330.78015	46.64385	1339.87976	-1137.69385	35.18735	1347.49695	-979.48132	654.46234	1582.82922	-888.42224	498.27808	1563.70837	-926.37445	308.46432	1570.79565	-954.49286	92.43036	1529.95825	-996.02655	60.33269	1475.03528	-819.27344	49.53672	1522.41638	-1020.99017	1662.03064	1394.92249	NaN	NaN	NaN	NaN	NaN	NaN	NaN	NaN	NaN	NaN	NaN	NaN	NaN	NaN	NaN	NaN	NaN	NaN	NaN	NaN	NaN
6	0.05	-916.61224	1613.65112	1352.36316	-928.98254	1615.80688	1484.14746	-1036.10449	1551.23962	1345.03992	-1044.21716	1553.45325	1475.40796	-1058.53601	1406.17908	1393.50659	-1120.80029	1102.42847	1383.01648	-936.63788	1327.24915	1410.1864	-908.2132	1156.78271	1403.07605	-1130.9884	1236.92664	1479.34119	-958.74408	1369.55713	1250.79895	-952.17365	1175.36304	1175.16821	-938.99341	1052.96619	1162.81787	-904.30035	926.78003	1169.54077	-886.36871	809.73334	1204.00012	-894.38464	814.90277	1148.65967	-870.638	735.61237	1160.78369	-1004.44513	1349.93921	1563.19617	-1039.70984	1132.11755	1636.45288	-1042.5614	1019.4397	1654.39771	-1052.65161	882.70721	1663.0144	-1041.51379	780.94202	1632.75293	-1073.03015	785.24976	1677.37402	-1062.15979	710.16052	1670.10242	-971.77301	917.44391	1284.50769	-986.65497	929.90704	1516.19592	-1133.49866	957.25006	1321.69775	-1142.73499	967.77618	1469.58875	-1072.36511	623.17316	1247.47412	-1110.54468	452.14417	1290.35461	-1202.36829	275.23547	1277.90967	-1278.67017	77.68829	1311.23828	-1330.73682	48.57361	1340.65613	-1137.71533	35.14766	1347.54187	-968.11914	653.88867	1584.35217	-877.10974	498.01428	1563.40466	-905.29694	306.55853	1573.13391	-919.77759	88.4173	1534.69275	-960.73901	54.38709	1480.90967	-782.53302	50.95344	1522.81262	-1011.96326	1660.80481	1396.69812	NaN	NaN	NaN	NaN	NaN	NaN	NaN	NaN	NaN	NaN	NaN	NaN	NaN	NaN	NaN	NaN	NaN	NaN	NaN	NaN	NaN
7	0.06	-907.1944	1612.79858	1353.8053	-919.6947	1614.72913	1485.93335	-1026.79919	1549.89966	1346.97717	-1034.78931	1552.16711	1477.3042	-1049.05688	1405.19873	1395.32898	-1111.79285	1101.45789	1384.21326	-927.26855	1326.01855	1411.8606	-899.12299	1155.49036	1404.26587	-1121.72546	1235.37537	1480.31396	-949.07947	1368.7417	1252.64233	-940.92365	1175.14905	1177.14929	-926.65875	1052.65906	1164.98401	-888.67609	927.81909	1173.5658	-866.04669	812.52618	1210.42065	-875.02264	815.91467	1155.17664	-847.53687	738.54218	1168.76477	-995.15192	1348.24597	1564.94092	-1031.3728	1130.45935	1637.62939	-1036.00696	1018.16632	1655.60181	-1045.72314	881.19794	1664.42566	-1034.89539	779.37292	1634.47644	-1067.05518	784.03522	1678.70898	-1055.38831	709.30975	1672.90613	-963.0061	916.31555	1284.80566	-975.85229	929.12628	1516.98486	-1124.6167	955.245	1323.41638	-1132.76013	966.04395	1471.28479	-1066.25952	623.07324	1248.33521	-1107.25989	452.39505	1290.95398	-1200.65515	276.4592	1278.80566	-1278.59619	79.44592	1312.12402	-1330.60596	50.80477	1341.63635	-1137.85242	35.1193	1347.62195	-957.10016	653.005	1586.20972	-866.58673	496.95996	1562.95386	-885.4729	304.91019	1575.24744	-886.87402	85.69592	1539.20679	-927.25519	49.61071	1486.52844	-748.04645	53.95083	1523.58862	-1002.91266	1659.51453	1398.55566	NaN	NaN	NaN	NaN	NaN	NaN	NaN	NaN	NaN	NaN	NaN	NaN	NaN	NaN	NaN	NaN	NaN	NaN	NaN	NaN	NaN
8	0.07	-898.05084	1611.52612	1355.83459	-910.23767	1613.69373	1487.79773	-1017.45892	1548.56128	1348.95227	-1025.22974	1550.87024	1479.32617	-1039.4906	1404.0968	1397.21106	-1102.62134	1100.51758	1385.58862	-917.77295	1324.76453	1413.56323	-889.98553	1154.14966	1405.35803	-1112.30273	1234.01428	1481.48633	-939.34564	1367.89246	1254.63269	-930.28613	1174.80078	1179.47266	-915.47784	1052.45728	1166.79309	-873.1189	929.24207	1177.45923	-846.03864	815.90674	1216.7196	-855.66595	817.47479	1161.68555	-824.71747	741.98358	1176.7478	-985.78046	1346.66907	1566.72668	-1022.69482	1129.11719	1638.91687	-1027.69556	1016.66199	1656.94141	-1038.22876	879.81061	1665.84436	-1027.66443	777.87561	1636.2439	-1060.13684	782.73914	1680.25403	-1048.24792	708.48492	1675.23987	-953.86383	915.35272	1285.19958	-964.74243	928.44904	1517.83618	-1115.53015	953.08887	1325.26477	-1122.47314	964.15527	1473.14075	-1059.52502	622.92249	1249.36401	-1103.18909	452.53091	1291.69629	-1198.44873	277.78827	1279.80786	-1278.26929	81.3213	1313.11279	-1330.38696	53.43942	1342.80103	-1137.90759	35.09898	1347.67188	-946.41333	651.59302	1588.11584	-856.52454	495.4227	1562.30408	-866.85529	303.61145	1577.06873	-856.47662	84.23357	1543.39551	-895.9234	45.86022	1492.0144	-716.40399	58.19016	1525.23389	-993.48877	1657.96472	1400.23291	NaN	NaN	NaN	NaN	NaN	NaN	NaN	NaN	NaN	NaN	NaN	NaN	NaN	NaN	NaN	NaN	NaN	NaN	NaN	NaN	NaN
